<?xml version="1.0"?>
<svg version="1.1" xmlns="http://www.w3.org/2000/svg" width="252" height="144" style=""><path fill="#ff004f" d="M16.4892578125,81.5947265625q0-1.0009765625,0.5859375-1.72119140625t1.42822265625-1.171875t1.84326171875-0.67138671875t1.85546875-0.2197265625q0.6591796875,0,1.7578125,0.1953125t2.1484375,0.5859375t1.81884765625,1.025390625t0.76904296875,1.4892578125q0,0.390625-0.29296875,0.69580078125t-0.6103515625,0.30517578125q-0.6591796875,0-1.1962890625-0.42724609375t-1.11083984375-0.9033203125t-1.25732421875-0.9033203125t-1.5380859375-0.42724609375t-1.55029296875,0.54931640625t-0.69580078125,1.45263671875q0,1.4892578125,1.0498046875,2.91748046875t2.30712890625,3.0029296875t2.30712890625,3.30810546875t1.0498046875,3.8330078125q0,0.9033203125-0.37841796875,1.52587890625t-1.0009765625,1.01318359375t-1.40380859375,0.59814453125t-1.513671875,0.20751953125q-0.8056640625,0-1.8798828125-0.37841796875t-2.0263671875-1.0009765625t-1.59912109375-1.45263671875t-0.64697265625-1.7333984375q0-0.439453125,0.62255859375-0.5615234375t0.91552734375-0.1220703125q0.146484375,0,0.45166015625,0.09765625t0.59814453125,0.2197265625t0.52490234375,0.2685546875t0.18310546875,0.3173828125q0.244140625,0.29296875,0.74462890625,0.86669921875t1.0009765625,0.927734375t0.87890625,0.25634765625t0.37841796875-1.0986328125q0-1.904296875-1.025390625-3.50341796875t-2.23388671875-3.125t-2.23388671875-3.02734375t-1.025390625-3.21044921875z M33.693115234375,90.5546875l0-2.294921875q0-1.2451171875,0.06103515625-3.52783203125t0.15869140625-5.0048828125t0.2685546875-5.67626953125t0.390625-5.57861328125t0.52490234375-4.69970703125t0.69580078125-3.076171875q0.244140625-0.5615234375,0.8056640625-0.7080078125t1.0986328125-0.146484375q0.8544921875,0,1.50146484375,0.37841796875t0.64697265625,1.37939453125l-0.439453125,0.48828125q-0.8544921875,5.6396484375-1.0986328125,11.328125t-0.341796875,11.376953125q0.6103515625-0.9521484375,1.37939453125-1.86767578125t1.708984375-1.62353515625t2.0263671875-1.13525390625t2.38037109375-0.42724609375q1.66015625,0,2.74658203125,1.0009765625t1.79443359375,2.60009765625t1.0498046875,3.57666015625t0.52490234375,3.955078125t0.25634765625,3.74755859375t0.2197265625,2.94189453125q-0.4638671875,0.634765625-1.3671875,0.634765625l-0.0732421875,0q-0.390625,0-0.8544921875-0.09765625t-0.6103515625-0.48828125l0.048828125,0.048828125q-0.341796875-0.7568359375-0.4638671875-2.18505859375t-0.1953125-3.1494140625t-0.25634765625-3.52783203125t-0.54931640625-3.271484375t-1.07421875-2.4169921875t-1.904296875-1.0009765625l-0.146484375,0q-1.4404296875,0-2.4169921875,0.87890625q-1.025390625,0.927734375-1.66015625,2.44140625t-0.9765625,3.369140625t-0.52490234375,3.57666015625t-0.28076171875,3.125t-0.244140625,2.06298828125q-0.146484375,0.5615234375-0.86669921875,0.74462890625t-1.23291015625,0.18310546875q-1.1962890625,0-1.953125-0.68359375q-0.5615234375-1.3427734375-0.6591796875-3.3447265625t-0.09765625-3.90625z M57.04931640625,87.3076171875q0-2.24609375,0.52490234375-4.40673828125t0.89111328125-4.30908203125q0.09765625-0.5615234375,0.76904296875-0.69580078125t1.13525390625-0.13427734375q0.8056640625,0,1.2939453125,0.244140625q0.1953125,0.09765625,0.3662109375,0.2197265625t0.1708984375,0.3173828125q0,2.099609375-0.50048828125,4.1015625t-0.50048828125,4.248046875q0,0.7568359375,0.10986328125,1.42822265625t0.20751953125,1.33056640625l0.146484375,0.7080078125q0,0.1953125,0.0244140625,0.341796875t0.0732421875,0.341796875q0,0.439453125-0.62255859375,0.59814453125t-1.08642578125,0.15869140625q-0.7080078125,0-1.30615234375-0.28076171875t-0.93994140625-0.96435546875l-0.341796875-0.7080078125q-0.29296875-0.5615234375-0.29296875-1.25732421875t-0.1220703125-1.28173828125z M58.61181640625,72.6103515625l0-0.4638671875q0-1.1474609375,0.57373046875-2.05078125t1.72119140625-0.9033203125q0.146484375,0,0.28076171875,0.0244140625t0.28076171875,0.0244140625q0.29296875,0.048828125,0.76904296875,0.23193359375t0.47607421875,0.57373046875l0,0.048828125q-0.09765625,0.1953125-0.1220703125,0.40283203125t-0.1220703125,0.35400390625l0.048828125-0.048828125q-0.29296875,0.7568359375-0.47607421875,1.220703125t-0.40283203125,0.74462890625t-0.54931640625,0.40283203125t-0.93994140625,0.1220703125q-0.09765625,0-0.341796875-0.0244140625t-0.52490234375-0.09765625t-0.47607421875-0.1953125t-0.1953125-0.3662109375z M67.710205078125,81.5947265625q0-1.0009765625,0.5859375-1.72119140625t1.42822265625-1.171875t1.84326171875-0.67138671875t1.85546875-0.2197265625q0.6591796875,0,1.7578125,0.1953125t2.1484375,0.5859375t1.81884765625,1.025390625t0.76904296875,1.4892578125q0,0.390625-0.29296875,0.69580078125t-0.6103515625,0.30517578125q-0.6591796875,0-1.1962890625-0.42724609375t-1.11083984375-0.9033203125t-1.25732421875-0.9033203125t-1.5380859375-0.42724609375t-1.55029296875,0.54931640625t-0.69580078125,1.45263671875q0,1.4892578125,1.0498046875,2.91748046875t2.30712890625,3.0029296875t2.30712890625,3.30810546875t1.0498046875,3.8330078125q0,0.9033203125-0.37841796875,1.52587890625t-1.0009765625,1.01318359375t-1.40380859375,0.59814453125t-1.513671875,0.20751953125q-0.8056640625,0-1.8798828125-0.37841796875t-2.0263671875-1.0009765625t-1.59912109375-1.45263671875t-0.64697265625-1.7333984375q0-0.439453125,0.62255859375-0.5615234375t0.91552734375-0.1220703125q0.146484375,0,0.45166015625,0.09765625t0.59814453125,0.2197265625t0.52490234375,0.2685546875t0.18310546875,0.3173828125q0.244140625,0.29296875,0.74462890625,0.86669921875t1.0009765625,0.927734375t0.87890625,0.25634765625t0.37841796875-1.0986328125q0-1.904296875-1.025390625-3.50341796875t-2.23388671875-3.125t-2.23388671875-3.02734375t-1.025390625-3.21044921875z M84.9140625,90.5546875l0-2.294921875q0-1.2451171875,0.06103515625-3.52783203125t0.15869140625-5.0048828125t0.2685546875-5.67626953125t0.390625-5.57861328125t0.52490234375-4.69970703125t0.69580078125-3.076171875q0.244140625-0.5615234375,0.8056640625-0.7080078125t1.0986328125-0.146484375q0.8544921875,0,1.50146484375,0.37841796875t0.64697265625,1.37939453125l-0.439453125,0.48828125q-0.8544921875,5.6396484375-1.0986328125,11.328125t-0.341796875,11.376953125q0.6103515625-0.9521484375,1.37939453125-1.86767578125t1.708984375-1.62353515625t2.0263671875-1.13525390625t2.38037109375-0.42724609375q1.66015625,0,2.74658203125,1.0009765625t1.79443359375,2.60009765625t1.0498046875,3.57666015625t0.52490234375,3.955078125t0.25634765625,3.74755859375t0.2197265625,2.94189453125q-0.4638671875,0.634765625-1.3671875,0.634765625l-0.0732421875,0q-0.390625,0-0.8544921875-0.09765625t-0.6103515625-0.48828125l0.048828125,0.048828125q-0.341796875-0.7568359375-0.4638671875-2.18505859375t-0.1953125-3.1494140625t-0.25634765625-3.52783203125t-0.54931640625-3.271484375t-1.07421875-2.4169921875t-1.904296875-1.0009765625l-0.146484375,0q-1.4404296875,0-2.4169921875,0.87890625q-1.025390625,0.927734375-1.66015625,2.44140625t-0.9765625,3.369140625t-0.52490234375,3.57666015625t-0.28076171875,3.125t-0.244140625,2.06298828125q-0.146484375,0.5615234375-0.86669921875,0.74462890625t-1.23291015625,0.18310546875q-1.1962890625,0-1.953125-0.68359375q-0.5615234375-1.3427734375-0.6591796875-3.3447265625t-0.09765625-3.90625z M108.27026367188,87.3076171875q0-2.24609375,0.52490234375-4.40673828125t0.89111328125-4.30908203125q0.09765625-0.5615234375,0.76904296875-0.69580078125t1.13525390625-0.13427734375q0.8056640625,0,1.2939453125,0.244140625q0.1953125,0.09765625,0.3662109375,0.2197265625t0.1708984375,0.3173828125q0,2.099609375-0.50048828125,4.1015625t-0.50048828125,4.248046875q0,0.7568359375,0.10986328125,1.42822265625t0.20751953125,1.33056640625l0.146484375,0.7080078125q0,0.1953125,0.0244140625,0.341796875t0.0732421875,0.341796875q0,0.439453125-0.62255859375,0.59814453125t-1.08642578125,0.15869140625q-0.7080078125,0-1.30615234375-0.28076171875t-0.93994140625-0.96435546875l-0.341796875-0.7080078125q-0.29296875-0.5615234375-0.29296875-1.25732421875t-0.1220703125-1.28173828125z M109.83276367188,72.6103515625l0-0.4638671875q0-1.1474609375,0.57373046875-2.05078125t1.72119140625-0.9033203125q0.146484375,0,0.28076171875,0.0244140625t0.28076171875,0.0244140625q0.29296875,0.048828125,0.76904296875,0.23193359375t0.47607421875,0.57373046875l0,0.048828125q-0.09765625,0.1953125-0.1220703125,0.40283203125t-0.1220703125,0.35400390625l0.048828125-0.048828125q-0.29296875,0.7568359375-0.47607421875,1.220703125t-0.40283203125,0.74462890625t-0.54931640625,0.40283203125t-0.93994140625,0.1220703125q-0.09765625,0-0.341796875-0.0244140625t-0.52490234375-0.09765625t-0.47607421875-0.1953125t-0.1953125-0.3662109375z M118.93115234375,81.0576171875q0-1.0009765625,0.35400390625-1.6845703125t1.50146484375-0.68359375q0.439453125,0,1.0986328125,0.13427734375t0.7568359375,0.67138671875q0.244140625,1.4404296875,0.2685546875,3.125t0.1708984375,3.173828125q0.5615234375-1.0986328125,1.4404296875-2.3681640625t2.001953125-2.34375t2.44140625-1.7822265625t2.685546875-0.7080078125q0.09765625,0,0.3662109375,0.0732421875t0.50048828125,0.20751953125t0.28076171875,0.30517578125t-0.2685546875,0.3173828125q-0.09765625,0.29296875-0.4150390625,0.35400390625t-0.5615234375,0.06103515625q-0.146484375,0-0.4638671875-0.1220703125q-1.806640625,0.9521484375-3.076171875,2.587890625t-2.0751953125,3.62548828125t-1.171875,4.19921875t-0.3662109375,4.30908203125q0,1.0498046875-0.47607421875,1.26953125t-1.52587890625,0.2197265625q-0.5615234375,0-1.18408203125-0.1220703125t-0.86669921875-0.78125q-0.439453125-1.3916015625-0.72021484375-3.1982421875t-0.42724609375-3.72314453125t-0.20751953125-3.77197265625t-0.06103515625-3.3447265625z M136.79418945312,95.6083984375q0-0.6103515625,0.0732421875-1.23291015625t0.0732421875-1.23291015625l0-0.390625q0-0.7568359375,0.62255859375-0.9521484375t1.28173828125-0.1953125q0.7568359375,0,1.45263671875,0.3173828125t0.69580078125,1.220703125q0.146484375,0.439453125,0.146484375,1.0498046875l0,1.1474609375q0,0.8544921875-0.59814453125,1.18408203125t-1.59912109375,0.32958984375q-0.7080078125,0-1.42822265625-0.25634765625t-0.72021484375-0.98876953125z M146.6982421875,87.4052734375q0-1.7578125,0.45166015625-3.52783203125t1.40380859375-3.173828125t2.42919921875-2.28271484375t3.47900390625-0.87890625q0.8544921875,0,1.8798828125,0.20751953125t1.89208984375,0.6591796875t1.46484375,1.171875t0.59814453125,1.77001953125q0,0.6591796875-0.341796875,0.87890625t-0.9033203125,0.2197265625l-0.1708984375-0.244140625t-0.47607421875-0.62255859375t-0.64697265625-0.8056640625t-0.6591796875-0.72021484375q-1.0009765625-1.0009765625-1.8798828125-1.07421875l-0.1953125,0q-0.732421875,0-1.3671875,0.439453125q-0.7080078125,0.537109375-1.25732421875,1.513671875t-0.91552734375,2.0751953125t-0.57373046875,2.2216796875t-0.20751953125,1.85546875q0,1.0009765625,0.23193359375,2.28271484375t0.78125,2.42919921875t1.3916015625,1.9287109375t2.16064453125,0.78125q1.1962890625,0,2.1728515625-0.5859375t1.86767578125-1.30615234375t1.74560546875-1.2939453125t1.7578125-0.57373046875q0.390625,0,0.79345703125,0.09765625t0.40283203125,0.5126953125l0,0.146484375q-0.439453125,1.1474609375-1.4892578125,2.0263671875t-2.35595703125,1.52587890625t-2.7099609375,0.96435546875t-2.50244140625,0.3173828125q-2.05078125,0-3.60107421875-0.67138671875t-2.57568359375-1.84326171875t-1.55029296875-2.81982421875t-0.52490234375-3.60107421875z M167.51538085938,88.357421875q0-1.3916015625,0.35400390625-2.86865234375t1.123046875-2.6611328125t1.94091796875-1.9287109375t2.83203125-0.74462890625q1.2451171875,0,2.62451171875,0.42724609375t2.52685546875,1.220703125t1.86767578125,1.94091796875t0.72021484375,2.5634765625q0,1.708984375-0.62255859375,3.2470703125t-1.74560546875,2.74658203125t-2.62451171875,1.904296875t-3.25927734375,0.69580078125q-1.4404296875,0-2.5146484375-0.52490234375t-1.79443359375-1.40380859375t-1.07421875-2.0751953125t-0.35400390625-2.5390625z M171.10424804688,88.30859375q0,0.439453125,0.13427734375,1.2939453125t0.40283203125,1.67236328125t0.69580078125,1.416015625t1.03759765625,0.54931640625q1.2939453125-0.146484375,2.13623046875-0.84228515625t1.3671875-1.69677734375t0.732421875-2.1728515625t0.20751953125-2.2216796875q0-1.3427734375-0.52490234375-2.24609375t-1.72119140625-1.46484375q0,0.048828125,0.048828125,0.048828125t0.048828125-0.048828125l-0.6103515625-0.146484375q-0.244140625-0.09765625-0.59814453125-0.2197265625t-0.69580078125-0.537109375q-0.9521484375,0.341796875-1.47705078125,0.87890625t-0.79345703125,1.30615234375t-0.32958984375,1.84326171875t-0.06103515625,2.587890625z M186.07421875,81.77783203125q-0.06103515625-0.81787109375,0.09765625-1.50146484375t0.634765625-1.11083984375t1.52587890625-0.42724609375q0.244140625,0,0.59814453125,0.06103515625t0.69580078125,0.15869140625t0.57373046875,0.29296875t0.23193359375,0.537109375l0,2.7587890625q0.9521484375-1.0986328125,2.0751953125-1.57470703125t2.5634765625-0.47607421875q1.0986328125,0,2.1728515625,0.50048828125t2.0263671875,1.33056640625t1.64794921875,1.8310546875t1.01318359375,2.001953125q0.1953125-0.9033203125,0.439453125-2.20947265625t0.72021484375-2.50244140625t1.25732421875-2.05078125t2.0751953125-0.8544921875q1.3916015625,0,2.34375,1.0009765625t1.55029296875,2.60009765625t0.9033203125,3.57666015625t0.45166015625,3.90625t0.146484375,3.60107421875l0,2.62451171875q0,0.29296875-0.2197265625,0.47607421875t-0.54931640625,0.28076171875t-0.68359375,0.1220703125t-0.54931640625,0.0244140625q-0.7568359375,0-1.37939453125-0.23193359375t-0.62255859375-1.18408203125l0-2.197265625t-0.048828125-2.84423828125t-0.1708984375-3.0517578125t-0.3173828125-2.77099609375t-0.50048828125-2.001953125t-0.74462890625-0.78125q-0.6103515625,0-0.87890625,0.68359375t-0.45166015625,1.7333984375t-0.28076171875,2.2216796875t-0.2685546875,2.2216796875t-0.54931640625,1.72119140625t-1.03759765625,0.67138671875q-0.7080078125,0-1.2451171875-0.67138671875t-1.06201171875-1.67236328125t-1.0498046875-2.1484375t-1.15966796875-2.1484375q-0.634765625-1.025390625-1.3671875-1.66015625q-0.6591796875-0.6103515625-1.4892578125-0.5859375l-0.1220703125,0q-1.0986328125,0.048828125-1.72119140625,0.79345703125t-0.9521484375,1.81884765625t-0.40283203125,2.30712890625t-0.0732421875,2.16064453125q0,0.87890625,0.146484375,2.05078125q0.09765625,0.78125,0.09765625,1.4892578125q0,0.3662109375-0.0244140625,0.7080078125q-0.0732421875,1.025390625-0.54931640625,1.72119140625t-1.77001953125,0.69580078125q-0.48828125,0-1.220703125-0.09765625t-0.9765625-0.6591796875q-0.5615234375-1.0009765625-0.8544921875-2.52685546875t-0.439453125-3.1494140625t-0.1708984375-3.22265625t-0.0244140625-2.74658203125q0-0.8056640625-0.06103515625-1.62353515625z"/><path fill="#" d=""/></svg>
